<?xml version="1.0" standalone="no"?><!DOCTYPE svg PUBLIC "-//W3C//DTD SVG 1.1//EN" "http://www.w3.org/Graphics/SVG/1.1/DTD/svg11.dtd"><svg t="1662951775069" class="icon" viewBox="0 0 1024 1024" version="1.1" xmlns="http://www.w3.org/2000/svg" p-id="1663" xmlns:xlink="http://www.w3.org/1999/xlink" width="128" height="128"><path d="M255.328915 231.829324C212.739719 142.273869 153.358874 65.133 77.147647 0.387351L267.840339 0a686.133454 686.133454 0 0 1 149.188077 218.117113 685.707369 685.707369 0 0 1 56.010894 267.44621v538.417309h-151.550915V525.925253c0-103.38387-22.059616-201.422303-66.178847-294.095929z m295.625965 792.170676v-538.41731a685.688001 685.688001 0 0 1 55.991526-267.465577c35.520048-82.234529 85.236496-154.940233 149.207445-218.117113l190.692692 0.387351c-76.230595 64.74565-135.611439 141.886518-178.181268 231.441973a677.418066 677.418066 0 0 0-66.15948 294.076562v498.094114h-151.550915z" fill="#BE1120" p-id="1664"></path></svg>